<svg xmlns="http://www.w3.org/2000/svg" width="24" height="24" viewBox="0 0 24 24" fill="none" stroke="#2196F3" stroke-width="2" stroke-linecap="round" stroke-linejoin="round">
  <path d="M12 2v2"/>
  <path d="M5.3 5.3l1.4 1.4"/>
  <path d="M2 12h2"/>
  <path d="M5.3 18.7l1.4-1.4"/>
  <path d="M12 22v-2"/>
  <path d="M17.3 5.3l-1.4 1.4"/>
  <path d="M12 7a5 5 0 0 0-5 5 4.93 4.93 0 0 0 .7 2.5"/>
  <path d="M17 17a3 3 0 1 0 0-6h-1.17"/>
  <path d="M13.5 17H5a3 3 0 1 1 0-6c1.56 0 2.92 1.12 3.22 2.62"/>
</svg>